<svg xmlns="http://www.w3.org/2000/svg" width="512" height="512"><path data-original="#000000" class="active-path" data-old_color="#EDE6E6" fill="#F8F2F2" d="M200.8 365.5H449l52-238.8H261.3v19.8h214.2l-43.4 199.2H215.7L95.8 11H11v20.9h70zM249.6 501c29.7 0 54.1-24 54.1-54.2 0-30.2-24.4-54.2-54.1-54.2s-54.1 24-54.1 54.2c0 30.2 24.4 54.2 54.1 54.2zm0-87.6c19.1 0 33.9 15.6 33.9 33.4 0 18.8-14.8 33.4-33.9 33.4s-33.9-15.6-33.9-33.4c0-18.8 15.9-33.4 33.9-33.4zM403.4 501c29.7 0 54.1-24 54.1-54.2 0-30.2-24.4-54.2-54.1-54.2s-54.1 24-54.1 54.2c0 30.2 24.4 54.2 54.1 54.2zm0-87.6c19.1 0 33.9 15.6 33.9 33.4 0 18.8-14.8 33.4-33.9 33.4s-33.9-15.6-33.9-33.4c1-18.8 15.9-33.4 33.9-33.4z"/></svg>